<mxfile host="app.diagrams.net" modified="2024-07-10T15:50:54.264Z" agent="Mozilla/5.0 (Windows NT 10.0; Win64; x64) AppleWebKit/537.36 (KHTML, like Gecko) Chrome/126.0.0.0 Safari/537.36" etag="9Qe8tCefKMNn75ZQeeMs" version="24.6.4" type="device">
  <diagram name="PÃ¡gina-1" id="xM7ewgTVFFoWfue-nOIC">
    <mxGraphModel dx="1050" dy="530" grid="1" gridSize="10" guides="1" tooltips="1" connect="1" arrows="1" fold="1" page="1" pageScale="1" pageWidth="827" pageHeight="1169" math="0" shadow="0">
      <root>
        <mxCell id="0" />
        <mxCell id="1" parent="0" />
        <mxCell id="BIsV-AhD1GA8SupZMWph-1" value="" style="strokeWidth=1;shadow=0;dashed=0;align=center;html=1;shape=mxgraph.mockup.containers.browserWindow;rSize=0;strokeColor=#666666;strokeColor2=#008cff;strokeColor3=#c4c4c4;mainText=,;recursiveResize=0;" vertex="1" parent="1">
          <mxGeometry x="39" y="10" width="750" height="1060" as="geometry" />
        </mxCell>
        <mxCell id="BIsV-AhD1GA8SupZMWph-2" value="Cordel" style="strokeWidth=1;shadow=0;dashed=0;align=center;html=1;shape=mxgraph.mockup.containers.anchor;fontSize=17;fontColor=#666666;align=left;whiteSpace=wrap;" vertex="1" parent="BIsV-AhD1GA8SupZMWph-1">
          <mxGeometry x="60" y="12" width="110" height="26" as="geometry" />
        </mxCell>
        <mxCell id="BIsV-AhD1GA8SupZMWph-3" value="https://marciomrd.github.io/projeto-cordel" style="strokeWidth=1;shadow=0;dashed=0;align=center;html=1;shape=mxgraph.mockup.containers.anchor;rSize=0;fontSize=17;fontColor=#666666;align=left;" vertex="1" parent="BIsV-AhD1GA8SupZMWph-1">
          <mxGeometry x="130" y="60" width="330" height="26" as="geometry" />
        </mxCell>
        <mxCell id="BIsV-AhD1GA8SupZMWph-6" value="&lt;font size=&quot;3&quot;&gt;&lt;b&gt;HEADER&lt;/b&gt;&lt;/font&gt;" style="rounded=0;whiteSpace=wrap;html=1;" vertex="1" parent="BIsV-AhD1GA8SupZMWph-1">
          <mxGeometry y="110" width="750" height="90" as="geometry" />
        </mxCell>
        <mxCell id="BIsV-AhD1GA8SupZMWph-7" value="&lt;b&gt;SECTION : CONTENT&lt;/b&gt;" style="rounded=0;whiteSpace=wrap;html=1;" vertex="1" parent="BIsV-AhD1GA8SupZMWph-1">
          <mxGeometry y="200" width="750" height="150" as="geometry" />
        </mxCell>
        <mxCell id="BIsV-AhD1GA8SupZMWph-8" value="" style="verticalLabelPosition=bottom;shadow=0;dashed=0;align=center;html=1;verticalAlign=top;strokeWidth=1;shape=mxgraph.mockup.graphics.simpleIcon;strokeColor=#999999;" vertex="1" parent="BIsV-AhD1GA8SupZMWph-1">
          <mxGeometry y="350" width="750" height="180" as="geometry" />
        </mxCell>
        <mxCell id="BIsV-AhD1GA8SupZMWph-9" value="&lt;b&gt;ASIDE&lt;/b&gt;" style="rounded=0;whiteSpace=wrap;html=1;" vertex="1" parent="BIsV-AhD1GA8SupZMWph-1">
          <mxGeometry x="80" y="370" width="121" height="140" as="geometry" />
        </mxCell>
        <mxCell id="BIsV-AhD1GA8SupZMWph-10" value="&lt;b&gt;SECTION: CONTENT&lt;/b&gt;" style="rounded=0;whiteSpace=wrap;html=1;" vertex="1" parent="BIsV-AhD1GA8SupZMWph-1">
          <mxGeometry y="530" width="750" height="140" as="geometry" />
        </mxCell>
        <mxCell id="BIsV-AhD1GA8SupZMWph-13" value="&lt;b&gt;SECTION: CONTENT&lt;/b&gt;" style="rounded=0;whiteSpace=wrap;html=1;" vertex="1" parent="BIsV-AhD1GA8SupZMWph-1">
          <mxGeometry y="850" width="750" height="150" as="geometry" />
        </mxCell>
        <mxCell id="BIsV-AhD1GA8SupZMWph-14" value="&lt;b&gt;FOOTER&lt;/b&gt;" style="rounded=0;whiteSpace=wrap;html=1;" vertex="1" parent="BIsV-AhD1GA8SupZMWph-1">
          <mxGeometry y="1000" width="750" height="60" as="geometry" />
        </mxCell>
        <mxCell id="BIsV-AhD1GA8SupZMWph-15" value="&lt;span style=&quot;font-size: 24px;&quot;&gt;&lt;b&gt;IMAGE&lt;/b&gt;&lt;/span&gt;" style="text;html=1;align=center;verticalAlign=middle;whiteSpace=wrap;rounded=0;" vertex="1" parent="BIsV-AhD1GA8SupZMWph-1">
          <mxGeometry x="231" y="385" width="280" height="110" as="geometry" />
        </mxCell>
        <mxCell id="BIsV-AhD1GA8SupZMWph-11" value="" style="verticalLabelPosition=bottom;shadow=0;dashed=0;align=center;html=1;verticalAlign=top;strokeWidth=1;shape=mxgraph.mockup.graphics.simpleIcon;strokeColor=#999999;" vertex="1" parent="1">
          <mxGeometry x="40" y="680" width="750" height="180" as="geometry" />
        </mxCell>
        <mxCell id="BIsV-AhD1GA8SupZMWph-12" value="&lt;b&gt;ASIDE&lt;/b&gt;" style="rounded=0;whiteSpace=wrap;html=1;" vertex="1" parent="1">
          <mxGeometry x="120" y="700" width="120" height="140" as="geometry" />
        </mxCell>
        <mxCell id="BIsV-AhD1GA8SupZMWph-16" value="&lt;span style=&quot;font-size: 24px;&quot;&gt;&lt;b&gt;IMAGE&lt;/b&gt;&lt;/span&gt;" style="text;html=1;align=center;verticalAlign=middle;whiteSpace=wrap;rounded=0;" vertex="1" parent="1">
          <mxGeometry x="280" y="715" width="280" height="110" as="geometry" />
        </mxCell>
      </root>
    </mxGraphModel>
  </diagram>
</mxfile>
